HIERARCHY
ROOT Hips
{
  OFFSET 0 89.5177 0.535
  CHANNELS 6 Xposition Yposition Zposition Zrotation Xrotation Yrotation
  JOINT Spine
  {
    OFFSET 12.0259 -0.162855 1.69034e-005
    CHANNELS 3 Zrotation Xrotation Yrotation
    JOINT Spine1
    {
      OFFSET 15.3169 -0.0121922 0
      CHANNELS 3 Zrotation Xrotation Yrotation
      JOINT Spine2
      {
        OFFSET 15.3176 -0.0121908 0
        CHANNELS 3 Zrotation Xrotation Yrotation
        JOINT Neck
        {
          OFFSET 19.9142 1.56338 0
          CHANNELS 3 Zrotation Xrotation Yrotation
          JOINT Head
          {
            OFFSET 6.92651 0 0
            CHANNELS 3 Zrotation Xrotation Yrotation
            End Site
            {
              OFFSET 20.7666 0 0
            }
          }
          JOINT LeftShoulder
          {
            OFFSET -6.20654 0.708824 7.28219
            CHANNELS 3 Zrotation Xrotation Yrotation
            JOINT LeftArm
            {
              OFFSET 14.108 0 -1.52588e-005
              CHANNELS 3 Zrotation Xrotation Yrotation
              JOINT LeftForeArm
              {
                OFFSET 28.5802 0 0
                CHANNELS 3 Zrotation Xrotation Yrotation
                JOINT LeftHand
                {
                  OFFSET 27.092 0 0
                  CHANNELS 3 Zrotation Xrotation Yrotation
                  End Site
                  {
                    OFFSET 9.55928 -0.186424 0.145352
                  }
                }
              }
            }
          }
          JOINT RightShoulder
          {
            OFFSET -6.20654 0.708866 -7.28218
            CHANNELS 3 Zrotation Xrotation Yrotation
            JOINT RightArm
            {
              OFFSET 14.108 0 1.52588e-005
              CHANNELS 3 Zrotation Xrotation Yrotation
              JOINT RightForeArm
              {
                OFFSET 28.5802 0 0
                CHANNELS 3 Zrotation Xrotation Yrotation
                JOINT RightHand
                {
                  OFFSET 27.092 0 0
                  CHANNELS 3 Zrotation Xrotation Yrotation
                  End Site
                  {
                    OFFSET 9.55929 -0.186417 -0.145354
                  }
                }
              }
            }
          }
        }
      }
    }
  }
  JOINT LeftUpLeg
  {
    OFFSET 0.005 -0.535 8.837
    CHANNELS 3 Zrotation Xrotation Yrotation
    JOINT LeftLeg
    {
      OFFSET 39.9035 0 0
      CHANNELS 3 Zrotation Xrotation Yrotation
      JOINT LeftFoot
      {
        OFFSET 39.6689 0 0
        CHANNELS 3 Zrotation Xrotation Yrotation
        JOINT LeftToe
        {
          OFFSET 10.1624 13.6296 0
          CHANNELS 3 Zrotation Xrotation Yrotation
          End Site
          {
            OFFSET 8.38147 0 0
          }
        }
      }
    }
  }
  JOINT RightUpLeg
  {
    OFFSET 0.005 -0.535 -8.837
    CHANNELS 3 Zrotation Xrotation Yrotation
    JOINT RightLeg
    {
      OFFSET 39.9035 0 0
      CHANNELS 3 Zrotation Xrotation Yrotation
      JOINT RightFoot
      {
        OFFSET 39.6689 0 0
        CHANNELS 3 Zrotation Xrotation Yrotation
        JOINT RightToe
        {
          OFFSET 10.1624 13.6296 0
          CHANNELS 3 Zrotation Xrotation Yrotation
          End Site
          {
            OFFSET 8.38147 0 0
          }
        }
      }
    }
  }
}
MOTION
Frames:	11
Frame Time:	0.0333333
344.202 88.3919 199.099 -69.4014 -53.0821 -159.628 4.2339 0.245933 -0.473894 8.46979 0.456684 -0.964545 8.46979 0.456683 -0.964555 -8.30748e-012 -9.0191e-006 -5.27751e-005 7.12752 47.9849 -7.64848 -178.804 -3.67746 -71.966 -3.60752 4.83663 61.3603 -40.0324 6.36111e-015 -0 -58.903 -44.2915 -55.4691 -178.202 6.46111 74.4099 -19.4618 -3.73724 -60.1557 -89.1322 7.95139e-016 3.18055e-015 -38.9901 40.0729 38.1973 -4.00805 -1.71581 -177.942 -45.8477 0 9.54166e-015 11.1674 -1.41108 0.978416 90 0 -0 7.50285 -7.44127 -173.948 -19.5633 9.54167e-015 4.37326e-015 18.1796 -3.29201 -4.64417 90 7.95139e-016 9.54166e-015 
345.076 88.383 198.775 -70.984 -50.6403 -161.124 4.2657 0.380241 -0.479263 8.53468 0.72425 -0.985395 8.53468 0.724249 -0.985405 -8.31066e-012 -9.0191e-006 -5.27751e-005 7.22485 47.9139 -8.36412 -178.791 -3.71274 -71.952 -3.1715 4.98549 61.2096 -39.864 0 -3.18055e-015 -59.2153 -44.2294 -55.8034 -178.207 6.43967 74.4035 -19.7613 -3.58586 -60.3162 -89.3208 2.38542e-015 -6.36111e-015 -39.1881 40.1724 38.4623 -5.60789 -1.70808 -179.56 -42.5956 0 1.59028e-015 11.0284 -1.34131 1.63799 90 3.97569e-015 -9.54166e-015 7.61215 -5.56538 -173.819 -19.8576 -6.36111e-015 -1.19271e-015 18.8544 -3.77135 -4.0561 90 1.59028e-015 -1.27222e-014 
345.953 88.3698 198.431 -72.3 -48.4752 -162.274 4.30087 0.446967 -0.501502 8.60584 0.855532 -1.03504 8.60584 0.855531 -1.03505 -8.30828e-012 -9.0191e-006 -5.27751e-005 6.86068 47.168 -8.6503 -178.774 -3.76029 -71.9224 -2.6691 5.09402 60.9177 -39.3215 -9.54166e-015 -3.18055e-015 -59.287 -44.2759 -55.9166 -178.211 6.41987 74.3951 -20.1858 -3.47356 -60.7327 -89.2946 -1.59028e-015 9.54166e-015 -39.1949 40.3406 38.5314 -7.11407 -1.11316 178.97 -38.2513 3.18055e-015 6.36111e-015 8.78669 -0.13855 -0.060425 90 7.95139e-016 -3.18055e-015 7.68536 -4.19896 -173.819 -20.2623 -1.90833e-014 -7.95139e-016 19.6993 -4.35681 -3.34734 90 -7.95139e-016 -9.54166e-015 
346.846 88.3507 198.048 -73.414 -46.5292 -163.17 4.34006 0.47503 -0.544731 8.68485 0.907936 -1.12379 8.68485 0.907935 -1.1238 -8.30669e-012 -9.0191e-006 -5.27751e-005 6.21986 45.7597 -8.62048 -178.785 -3.72722 -71.9338 -2.21818 5.23254 60.5393 -38.4676 9.54166e-015 1.27222e-014 -59.6292 -44.2516 -56.3269 -178.225 6.34974 74.3455 -20.752 -3.45856 -61.206 -89.0901 -7.95139e-016 -0 -38.8505 40.3846 38.2405 -8.60067 0.26114 177.689 -33.8878 0 -0 6.57835 1.58989 -3.4293 90 -7.95139e-016 6.36111e-015 7.86791 -2.91789 -173.878 -20.5686 6.36111e-015 3.97569e-016 20.5108 -4.88504 -2.63108 90 7.95139e-016 6.36111e-015 
347.801 88.3125 197.604 -74.3322 -44.6229 -163.933 4.38453 0.495502 -0.581027 8.7743 0.945591 -1.19818 8.7743 0.94559 -1.19819 -8.30987e-012 -9.0191e-006 -5.27751e-005 5.44554 43.712 -8.38507 -178.779 -3.73608 -71.8825 -1.77417 5.38549 60.0929 -37.3863 3.18055e-015 3.18055e-015 -59.2936 -44.3374 -55.9954 -178.258 6.24441 74.3775 -21.4178 -3.54949 -61.7586 -88.8598 -2.38542e-015 9.54166e-015 -38.5662 40.5021 37.9881 -9.79537 2.99268 176.736 -29.5525 -9.54166e-015 7.95139e-016 4.9981 3.37309 -7.29747 90 -1.59028e-015 1.27222e-014 8.22604 -1.98769 -173.992 -20.7239 -6.36111e-015 -4.77083e-015 21.1578 -5.28345 -1.97104 90 -7.95139e-016 -0 
348.78 88.2532 197.141 -75.3385 -42.9517 -164.752 4.37734 0.502008 -0.609766 8.76024 0.956466 -1.25602 8.76024 0.956465 -1.25603 -8.3051e-012 -9.0191e-006 -5.27751e-005 4.61473 41.2154 -7.80542 -178.779 -3.72075 -71.8178 -1.46386 5.63477 59.6531 -36.2689 0 -0 -59.3767 -44.4356 -56.2051 -178.288 6.14812 74.4062 -22.2413 -3.79357 -62.0946 -88.6481 2.38542e-015 -0 -38.2158 40.4843 37.6447 -10.6438 4.76642 175.749 -24.5524 3.18055e-015 -1.59028e-015 3.08397 5.67673 -12.374 90 3.97569e-015 -0 8.40978 -0.846017 -174.019 -21.1594 -3.18056e-015 -1.59028e-015 22.2191 -5.98542 -0.837051 90 0 -0 
349.9 88.1033 196.62 -76.2217 -41.3159 -165.79 4.34639 0.539681 -0.5819 8.69858 1.03416 -1.20299 8.69858 1.03416 -1.203 -8.31225e-012 -9.0191e-006 -5.27751e-005 3.6796 38.3014 -6.86393 -178.771 -3.73299 -71.7681 -1.11728 5.98393 59.271 -35.2404 -3.18055e-015 -0 -58.978 -44.6858 -55.9222 -178.3 6.12257 74.4486 -23.1124 -4.09701 -62.2929 -88.5197 -3.18055e-015 -1.59028e-014 -37.63 40.7885 37.2423 -11.243 8.34089 175.363 -20.062 3.18055e-015 8.57259e-016 0.669246 7.35687 -16.1637 90 -6.36111e-015 1.27222e-014 8.77202 0.0304572 -173.745 -21.3891 0 2.38542e-015 23.0086 -6.48105 0.171329 90 -1.59028e-015 6.36111e-015 
351.126 87.9096 196.03 -76.8612 -39.6799 -166.725 4.33197 0.582159 -0.541779 8.66987 1.12219 -1.12595 8.66987 1.12219 -1.12596 -8.3051e-012 -9.0191e-006 -5.27751e-005 2.8666 35.47 -5.84755 -178.718 -3.86418 -71.626 -0.605532 6.20718 58.9463 -34.3994 3.18055e-015 3.18055e-015 -58.8495 -44.7243 -55.8096 -178.331 6.04194 74.5296 -23.8997 -4.40641 -62.3574 -88.4153 7.95139e-016 -0 -37.3263 40.9362 37.013 -11.4264 13.292 175.134 -16.4292 3.18055e-015 7.95139e-016 -0.868327 9.08164 -19.9783 90 6.36111e-015 9.54166e-015 9.38963 0.977885 -173.416 -21.5523 0 -4.77083e-015 23.7714 -6.90074 1.21839 90 -1.59028e-015 -3.18055e-015 
352.448 87.7018 195.334 -77.3164 -38.0996 -167.433 4.32395 0.642691 -0.53183 8.65444 1.24391 -1.11059 8.65444 1.24391 -1.1106 -8.30748e-012 -9.0191e-006 -5.27751e-005 1.97543 32.5684 -4.79265 -178.688 -3.91765 -71.4751 0.00379774 6.50673 58.6476 -33.9216 -3.18055e-015 9.54166e-015 -59.0835 -44.8175 -56.1505 -178.357 5.96598 74.5753 -24.3396 -4.58717 -62.3391 -88.365 -7.95139e-016 -0 -37.0048 41.2789 36.8851 -12.1111 17.572 174.903 -15.4778 9.54166e-015 9.93923e-016 -0.524174 10.3402 -21.542 90 3.18055e-015 3.18055e-015 10.1905 1.77803 -173.273 -21.7724 0 -3.18056e-015 24.6307 -7.39912 2.58144 90 -3.18055e-015 3.18055e-015 
353.906 87.4444 194.582 -77.6144 -36.6737 -168.194 4.31914 0.707468 -0.494904 8.64517 1.37611 -1.04169 8.64517 1.37611 -1.0417 -8.30748e-012 -9.0191e-006 -5.27751e-005 1.08874 30.0199 -3.81171 -178.638 -4.02018 -71.2698 0.530463 6.72108 58.3534 -33.5554 -6.36111e-015 -6.36111e-015 -59.4278 -44.7606 -56.5147 -178.376 5.90829 74.6034 -24.4595 -4.61547 -62.3303 -88.232 -1.59028e-015 3.18055e-015 -36.9754 41.2129 36.8078 -13.5592 21.0509 175.189 -18.0744 6.36111e-015 -3.35449e-015 2.8209 11.1324 -21.1739 90 6.36111e-015 6.36111e-015 11.2636 2.43181 -173.02 -21.7739 1.59028e-014 7.95139e-016 25.3127 -7.8127 4.22689 90 -1.59028e-015 -6.36111e-015 
355.496 87.1734 193.768 -77.7773 -35.5453 -168.812 4.29758 0.750585 -0.476616 8.60232 1.4638 -1.00815 8.60232 1.4638 -1.00816 -8.30828e-012 -9.0191e-006 -5.27751e-005 0.315986 27.7689 -2.95485 -178.623 -4.0256 -71.0963 0.982543 7.05932 58.0795 -33.3782 -6.36111e-015 -4.77083e-015 -59.409 -45.0079 -56.6415 -178.37 5.92267 74.5822 -24.2925 -4.58214 -62.4029 -88.0577 3.18055e-015 -3.18055e-015 -37.1209 41.1358 36.9006 -14.7081 21.5069 175.321 -21.6754 0 -5.76476e-015 5.24896 11.4688 -19.1903 90 -3.18055e-015 6.36111e-015 12.5347 2.67471 -172.896 -21.6642 0 1.59028e-015 25.842 -8.30234 6.60847 90 -4.77083e-015 -3.18055e-015 
